<?xml version="1.0" encoding="utf-8"?>
<!-- Generator: Adobe Illustrator 15.0.2, SVG Export Plug-In . SVG Version: 6.00 Build 0)  -->
<!DOCTYPE svg PUBLIC "-//W3C//DTD SVG 1.1//EN" "http://www.w3.org/Graphics/SVG/1.1/DTD/svg11.dtd">
<svg version="1.1" id="Layer_1" xmlns="http://www.w3.org/2000/svg" xmlns:xlink="http://www.w3.org/1999/xlink" x="0px" y="0px"
	 width="300px" height="50px" viewBox="0 0.866 300 50" enable-background="new 0 0.866 300 50" xml:space="preserve">
<rect y="0.866" fill="#ED1C24" width="300" height="50"/>
<title>HTML5 Logo</title>
<polygon fill="#E44D26" points="268.464,43.617 265.743,13.111 295.629,13.111 292.907,43.613 280.669,47.005 "/>
<polygon fill="#F16529" points="280.688,44.412 290.576,41.67 292.902,15.606 280.688,15.606 "/>
<polygon fill="#EBEBEB" points="280.688,26.92 275.736,26.92 275.393,23.088 280.688,23.088 280.688,19.347 280.674,19.347 
	271.305,19.347 271.395,20.351 272.314,30.661 280.688,30.661 "/>
<polygon fill="#EBEBEB" points="280.688,36.637 280.67,36.642 276.503,35.516 276.237,32.532 274.212,32.532 272.48,32.532 
	273.006,38.407 280.669,40.534 280.688,40.529 "/>
<path fill="#FFFFFF" d="M268.524,4.821h1.901V6.7h1.739V4.821h1.9v5.688h-1.9V8.605h-1.739v1.905h-1.901V4.821L268.524,4.821z"/>
<path fill="#FFFFFF" d="M276.567,6.708h-1.675V4.821h5.25v1.887h-1.674v3.802h-1.901V6.708L276.567,6.708z"/>
<path fill="#FFFFFF" d="M280.976,4.821h1.982l1.22,1.999l1.219-1.999h1.982v5.688h-1.893V7.69l-1.309,2.023h-0.032l-1.31-2.023
	v2.819h-1.86V4.821z"/>
<path fill="#FFFFFF" d="M288.326,4.821h1.901v3.808h2.675v1.88h-4.576V4.821z"/>
<polygon fill="#FFFFFF" points="280.674,26.92 280.674,30.661 285.28,30.661 284.846,35.513 280.674,36.64 280.674,40.532 
	288.345,38.407 288.399,37.774 289.279,27.925 289.37,26.92 288.363,26.92 "/>
<polygon fill="#FFFFFF" points="280.674,19.347 280.674,21.671 280.674,23.079 280.674,23.088 289.698,23.088 289.698,23.088 
	289.711,23.088 289.786,22.248 289.956,20.351 290.046,19.347 "/>
<g>
	<path fill="#FFFFFF" d="M120.991,14.39h2.573v3.147l2.696-3.147h3.423l-3.039,3.144l3.175,5.185h-3.169l-1.756-3.425l-1.33,1.393
		v2.032h-2.573V14.39z"/>
	<path fill="#FFFFFF" d="M130.706,22.718V14.39h4.288c0.797,0,1.404,0.068,1.824,0.205c0.42,0.136,0.76,0.389,1.018,0.758
		c0.256,0.369,0.386,0.819,0.386,1.349c0,0.462-0.099,0.86-0.296,1.196c-0.197,0.334-0.468,0.606-0.812,0.815
		c-0.22,0.132-0.521,0.242-0.904,0.329c0.307,0.103,0.53,0.205,0.67,0.307c0.095,0.068,0.232,0.215,0.412,0.438
		c0.18,0.224,0.3,0.396,0.361,0.517l1.245,2.414h-2.907l-1.376-2.545c-0.175-0.33-0.329-0.543-0.466-0.643
		c-0.186-0.128-0.396-0.193-0.631-0.193h-0.227v3.38H130.706z M133.291,17.765h1.085c0.117,0,0.345-0.038,0.681-0.114
		c0.171-0.034,0.311-0.121,0.418-0.262c0.108-0.14,0.162-0.3,0.162-0.482c0-0.269-0.086-0.476-0.256-0.619
		c-0.17-0.144-0.49-0.216-0.96-0.216h-1.13V17.765z"/>
	<path fill="#FFFFFF" d="M139.199,18.56c0-1.36,0.379-2.418,1.135-3.176c0.758-0.757,1.812-1.136,3.165-1.136
		c1.386,0,2.454,0.372,3.204,1.117c0.75,0.744,1.125,1.786,1.125,3.127c0,0.974-0.164,1.771-0.491,2.395
		c-0.328,0.623-0.802,1.107-1.421,1.454s-1.391,0.52-2.314,0.52c-0.939,0-1.717-0.149-2.332-0.449s-1.115-0.773-1.497-1.42
		S139.199,19.533,139.199,18.56z M141.771,18.571c0,0.841,0.156,1.445,0.469,1.812c0.313,0.368,0.738,0.551,1.275,0.551
		c0.553,0,0.98-0.179,1.285-0.54c0.302-0.36,0.454-1.005,0.454-1.937c0-0.784-0.159-1.356-0.475-1.719
		c-0.316-0.361-0.745-0.542-1.287-0.542c-0.519,0-0.936,0.184-1.25,0.551C141.93,17.115,141.771,17.723,141.771,18.571z"/>
	<path fill="#FFFFFF" d="M149.186,14.39h3.385l1.305,5.067l1.296-5.067h3.382v8.328h-2.106v-6.351l-1.624,6.351h-1.908l-1.621-6.351
		v6.351h-2.107V14.39z"/>
	<path fill="#FFFFFF" d="M165.314,21.343h-2.921l-0.405,1.375h-2.627l3.129-8.328h2.807l3.131,8.328h-2.695L165.314,21.343z
		 M164.781,19.543l-0.918-2.994l-0.91,2.994H164.781z"/>
	<path fill="#FFFFFF" d="M173.096,14.39h3.385l1.306,5.067l1.296-5.067h3.383v8.328h-2.107v-6.351l-1.624,6.351h-1.908l-1.621-6.351
		v6.351h-2.108V14.39z"/>
	<path fill="#FFFFFF" d="M183.781,18.56c0-1.36,0.379-2.418,1.137-3.176s1.812-1.136,3.164-1.136c1.387,0,2.455,0.372,3.205,1.117
		c0.75,0.744,1.125,1.786,1.125,3.127c0,0.974-0.165,1.771-0.492,2.395c-0.327,0.623-0.801,1.107-1.42,1.454
		c-0.62,0.347-1.391,0.52-2.315,0.52c-0.938,0-1.716-0.149-2.331-0.449c-0.617-0.299-1.115-0.773-1.498-1.42
		C183.974,20.344,183.781,19.533,183.781,18.56z M186.355,18.571c0,0.841,0.156,1.445,0.469,1.812
		c0.312,0.368,0.736,0.551,1.275,0.551c0.553,0,0.98-0.179,1.285-0.54c0.302-0.36,0.453-1.005,0.453-1.937
		c0-0.784-0.158-1.356-0.475-1.719c-0.316-0.361-0.744-0.542-1.287-0.542c-0.518,0-0.936,0.184-1.249,0.551
		C186.512,17.115,186.355,17.723,186.355,18.571z"/>
	<path fill="#FFFFFF" d="M193.803,14.39h4.818c0.802,0,1.418,0.199,1.849,0.596c0.43,0.398,0.646,0.89,0.646,1.477
		c0,0.493-0.154,0.915-0.461,1.267c-0.204,0.235-0.504,0.42-0.897,0.557c0.599,0.144,1.038,0.392,1.321,0.741
		c0.281,0.351,0.422,0.791,0.422,1.321c0,0.432-0.1,0.819-0.301,1.164s-0.476,0.618-0.824,0.818
		c-0.215,0.125-0.54,0.216-0.977,0.272c-0.579,0.076-0.963,0.114-1.153,0.114h-4.442V14.39z M196.4,17.656h1.118
		c0.401,0,0.681-0.068,0.838-0.207c0.157-0.138,0.235-0.338,0.235-0.6c0-0.242-0.078-0.432-0.235-0.567
		c-0.157-0.137-0.431-0.205-0.821-0.205H196.4V17.656z M196.4,20.929h1.311c0.443,0,0.756-0.079,0.938-0.236
		c0.183-0.157,0.273-0.368,0.273-0.633c0-0.246-0.09-0.444-0.271-0.594c-0.18-0.149-0.494-0.224-0.946-0.224H196.4V20.929z"/>
	<path fill="#FFFFFF" d="M202.95,14.39h2.579v8.328h-2.579V14.39z"/>
	<path fill="#FFFFFF" d="M207.375,14.39h2.574v6.277h4.016v2.051h-6.59V14.39z"/>
	<path fill="#FFFFFF" d="M215.129,14.39h6.896v1.778h-4.316v1.324h4.004v1.698h-4.004v1.642h4.441v1.886h-7.021V14.39z"/>
	<path fill="#FFFFFF" d="M120.395,28.352h7.823v2.057h-2.624v6.271h-2.574v-6.271h-2.625V28.352z"/>
	<path fill="#FFFFFF" d="M129.377,28.352h6.896v1.778h-4.317v1.323h4.005v1.699h-4.005v1.642h4.442v1.886h-7.021V28.352z"/>
	<path fill="#FFFFFF" d="M137.756,28.352h3.385l1.305,5.067l1.296-5.067h3.382v8.328h-2.107v-6.351l-1.624,6.351h-1.907
		l-1.621-6.351v6.351h-2.107V28.352z"/>
	<path fill="#FFFFFF" d="M148.754,28.352h4.277c0.932,0,1.63,0.222,2.094,0.665c0.464,0.443,0.696,1.074,0.696,1.892
		c0,0.841-0.253,1.498-0.759,1.971c-0.505,0.474-1.277,0.71-2.314,0.71h-1.409v3.09h-2.585V28.352z M151.339,31.902h0.631
		c0.495,0,0.845-0.086,1.046-0.258c0.199-0.172,0.301-0.393,0.301-0.662c0-0.261-0.088-0.482-0.262-0.665
		c-0.175-0.182-0.502-0.272-0.982-0.272h-0.733V31.902z"/>
	<path fill="#FFFFFF" d="M157.168,28.352h2.573v6.277h4.017v2.05h-6.59V28.352z"/>
	<path fill="#FFFFFF" d="M170.047,35.305h-2.921l-0.406,1.374h-2.628l3.131-8.328h2.807l3.129,8.328h-2.693L170.047,35.305z
		 M169.514,33.504l-0.919-2.994l-0.91,2.994H169.514z"/>
	<path fill="#FFFFFF" d="M172.592,28.352h7.822v2.057h-2.625v6.271h-2.574v-6.271h-2.623V28.352z"/>
	<path fill="#FFFFFF" d="M181.572,28.352h6.896v1.778h-4.316v1.323h4.004v1.699h-4.004v1.642h4.441v1.886h-7.021V28.352z"/>
	<path fill="#FFFFFF" d="M189.531,33.925l2.448-0.154c0.054,0.398,0.161,0.701,0.325,0.909c0.264,0.337,0.643,0.506,1.135,0.506
		c0.367,0,0.65-0.087,0.85-0.259c0.199-0.172,0.299-0.372,0.299-0.599c0-0.216-0.096-0.409-0.284-0.579
		c-0.189-0.171-0.63-0.332-1.317-0.483c-1.131-0.254-1.936-0.591-2.416-1.011c-0.484-0.42-0.727-0.957-0.727-1.608
		c0-0.428,0.123-0.832,0.372-1.213c0.248-0.38,0.622-0.679,1.118-0.897c0.5-0.217,1.182-0.327,2.049-0.327
		c1.064,0,1.875,0.198,2.435,0.594c0.558,0.396,0.89,1.025,0.996,1.889l-2.425,0.142c-0.064-0.375-0.2-0.647-0.406-0.818
		c-0.207-0.171-0.492-0.256-0.855-0.256c-0.299,0-0.525,0.063-0.676,0.19c-0.152,0.126-0.229,0.281-0.229,0.463
		c0,0.132,0.063,0.251,0.189,0.358c0.12,0.11,0.408,0.212,0.863,0.307c1.124,0.242,1.93,0.487,2.417,0.735
		c0.486,0.249,0.841,0.556,1.062,0.923c0.222,0.368,0.331,0.778,0.331,1.233c0,0.534-0.146,1.026-0.442,1.477
		c-0.295,0.45-0.709,0.792-1.239,1.025c-0.529,0.233-1.198,0.35-2.004,0.35c-1.418,0-2.398-0.273-2.943-0.818
		C189.912,35.458,189.604,34.766,189.531,33.925z"/>
</g>
<g>
	<g>
		<g>
			<path fill="#FFFFFF" d="M44.897,33.298c0.162-0.077,0.283-0.219,0.385-0.366c0.069-0.102,0.08-0.119,0.076-0.235
				c-0.002-0.146-0.053-0.188,0.021-0.328c0.141-0.258,0.295-0.055,0.482-0.129c0.146-0.056,0.331-0.293,0.434-0.414
				c-0.117-0.121-0.25-0.185-0.232-0.368c0.014-0.166,0.14-0.247,0.264-0.334c0.112-0.081,0.305-0.171,0.328-0.324
				c0.042-0.269-0.197-0.301-0.379-0.344c0.261-0.248,0.68,0.078,0.771,0.342c0.037,0.106-0.023,0.509,0.123,0.485
				c0.097-0.013,0.22-0.26,0.318-0.309c0.254-0.121,0.837-0.11,1.091-0.003c0.177,0.073,0.345,0.167,0.321,0.382
				c-0.02,0.177-0.138,0.278-0.329,0.272c-0.206-0.007-0.349-0.161-0.53-0.236c-0.146-0.06-0.475-0.132-0.623-0.068
				c-0.069,0.031-0.163,0.126-0.104,0.196c0.039,0.046,0.248,0.007,0.303,0.016c0.24,0.03,0.426,0.183,0.363,0.438
				c-0.322-0.178-0.508-0.135-0.784,0.113c-0.333,0.298-0.524,0.109-0.854-0.094c-0.111,0.14-0.326,0.223-0.408,0.362
				c0.131,0.104,0.174,0.255,0.097,0.408c-0.106,0.21-0.241,0.192-0.431,0.199c-0.121,0.004-0.062-0.015-0.156,0.058
				c-0.056,0.044-0.1,0.118-0.15,0.169c-0.085,0.078-0.227,0.287-0.334,0.148"/>
			<path fill="#FFFFFF" d="M42.388,35.147c0.072,0.412,0.686,0.345,0.988,0.318c0.204-0.019,0.413,0.008,0.612-0.009
				c0.172-0.015,0.336-0.085,0.506-0.131c0.306-0.083,0.597-0.281,0.79-0.521c0.194-0.24,0.232-0.569,0.447-0.794
				c0.118-0.122,0.284-0.209,0.437-0.077c0.182,0.156-0.054,0.331,0.053,0.458c0.27-0.124,0.505-0.392,0.668-0.633
				c0.2-0.299,0.148-0.599,0.245-0.933c0.042-0.148,0.149-0.285,0.312-0.315c0.148-0.026,0.353,0.169,0.443,0.125
				c0.101-0.051,0.075-0.332,0.176-0.442c0.104-0.114,0.261-0.225,0.424-0.167c0.404,0.14,0.382,0.58,0.227,0.873
				c-0.088,0.166-0.088,0.34,0.117,0.157c0.125-0.112,0.15-0.288,0.238-0.43c0.207-0.332,0.973-1.41,1.489-1.104
				c0.288,0.169-0.112,0.311-0.035,0.477c0.093,0.202,0.372-0.197,0.442-0.266c0.285-0.276,0.88-0.395,1.17-0.088
				c-0.096,0.114-0.256,0.162-0.35,0.273c-0.104,0.124-0.104,0.293-0.202,0.425c-0.087,0.114-0.347,0.27-0.091,0.319
				c0.126,0.025,0.338-0.069,0.467-0.094c0.191-0.038,0.379-0.064,0.57-0.098c0.175-0.029,0.305-0.108,0.474-0.164
				c0.364-0.118,0.704-0.111,1.083-0.125c0.189-0.006,0.451-0.217,0.629-0.159c-0.01,0.146-0.133,0.28-0.234,0.384
				c-0.102,0.105-0.312,0.169-0.377,0.273c0.145,0.068,0.309,0.005,0.46,0.027c0.163,0.025,0.28,0.102,0.409,0.187
				c0.268,0.172,0.532,0.369,0.631,0.685c-0.277-0.08-0.66-0.317-0.931-0.073c0.142,0.157,0.339,0.243,0.481,0.405
				c0.106,0.12,0.17,0.268,0.252,0.406c0.203,0.342,0.36,0.659,0.427,1.054c0.121,0.732-0.011,1.442-0.312,2.108
				c-0.583,1.302-2.26,2.108-3.625,1.571c-0.67-0.264-1.271-0.956-1.195-1.701c0.039-0.372,0.021-0.789,0.211-1.105
				c0.194-0.32,0.436-0.574,0.748-0.779c0.609-0.399,1.547-0.18,2.055,0.3c0.271,0.255,0.518,0.611,0.383,0.987
				c-0.094,0.264-0.389,0.684-0.736,0.58c-0.389-0.115-0.306-0.638-0.011-0.817c0.159-0.099,0.35,0.093,0.376-0.141
				c0.015-0.155-0.155-0.355-0.257-0.452c-0.242-0.228-0.712-0.319-1.032-0.239c-0.262,0.067-0.666,0.322-0.793,0.566
				c0.196,0.008,0.373-0.043,0.549,0.103c0.067,0.057,0.119,0.097,0.119,0.186c0,0.15-0.082,0.119-0.204,0.137
				c-0.383,0.057-0.581,0.228-0.724,0.595c-0.045,0.114-0.182,0.345-0.124,0.468c0.122,0.264,0.294,0.004,0.397-0.068
				c0.197-0.136,0.301-0.016,0.359-0.267c0.039-0.167,0.086-0.282,0.213-0.415c0.154-0.162,0.422-0.377,0.658-0.345
				c-0.088,0.238-0.422,0.683-0.191,0.935c0.177,0.192,0.343-0.059,0.533-0.007c0.205,0.057,0.25,0.347,0.215,0.508
				c-0.039,0.182-0.127,0.402,0.141,0.453c0.146,0.028,0.341-0.11,0.467-0.17c0.307-0.142,0.539-0.264,0.809-0.48
				c1.152-0.927,0.963-3.283-0.562-3.755c-0.191-0.062-0.356-0.13-0.31,0.128c0.029,0.16,0.143,0.307,0.26,0.416
				c-0.105,0.161-0.559,0.064-0.719,0.021c-0.298-0.08-0.518-0.315-0.686-0.563c-0.158-0.236-0.286-0.503-0.477-0.714
				c-0.146-0.163-0.471-0.442-0.707-0.351c0.274,0.286,0.631,0.482,0.391,0.902c-0.041,0.071-0.095,0.088-0.099,0.181
				c-0.005,0.105,0.115,0.186,0.126,0.282c0.015,0.13-0.106,0.276-0.268,0.253c-0.202-0.029-0.276-0.305-0.5-0.312
				c-0.247-0.01-0.146,0.207-0.303,0.323c-0.288,0.213-0.63-0.307-0.807-0.488c-0.199-0.207-0.41-0.429-0.697-0.496
				c-0.125-0.03-0.752-0.11-0.745,0.044c0.01,0.186,0.496,0.294,0.616,0.377c0.203,0.142,0.293,0.388,0.514,0.512
				c-0.174,0.07-0.373,0.059-0.557,0.053c-0.142-0.005-0.395-0.087-0.524-0.029c-0.142,0.062-0.194,0.225-0.37,0.259
				c-0.191,0.038-0.309-0.085-0.423-0.221c-0.073-0.085-0.165-0.307-0.282-0.345c-0.12-0.038-0.314,0.1-0.441,0.128
				c-0.346,0.075-0.65,0.172-0.977,0.316c-0.597,0.268-1.227,0.605-1.861,0.778c-0.361,0.1-0.762,0.165-1.133,0.2
				c-0.198,0.02-0.408,0.015-0.602-0.006c-0.229-0.024-0.591-0.272-0.468-0.559c0.009-0.021,0.031-0.038,0.047-0.054"/>
			<path fill="#FFFFFF" d="M42.643,35.626c0.237,0.292,0.519,0.518,0.898,0.594c0.307,0.062,0.701-0.102,0.967-0.204
				c0.07-0.027,0.153-0.092,0.225-0.104c0.182-0.031,0.125,0.017,0.196,0.142c0.095,0.17,0.216,0.256,0.415,0.217
				c0.131-0.025,0.295-0.096,0.407-0.182c0.158-0.124,0.123-0.23,0.187-0.408c0.055-0.154,0.104-0.301,0.272-0.35
				c0.192-0.055,0.331-0.013,0.511-0.129c0.156-0.102,0.293-0.271,0.504-0.165c0.187,0.095,0.167,0.27,0.08,0.423
				c-0.067,0.117-0.252,0.24-0.221,0.399c0.051,0.264,0.305,0.042,0.42-0.044c0.299-0.224,0.553-0.396,0.955-0.393
				c0.162,0.001,0.389,0.045,0.397,0.229c0.005,0.091-0.091,0.113-0.062,0.216c0.032,0.11,0.173,0.133,0.265,0.16
				c0.217,0.064,0.895,0.448,0.467,0.711c-0.172,0.107-0.426-0.001-0.213,0.286c0.109,0.146,0.266,0.256,0.374,0.404
				c0.166,0.228,0.397,0.82-0.017,0.949c-0.092,0.028-0.174-0.043-0.275,0.008c-0.074,0.035-0.119,0.15-0.168,0.206
				c-0.112,0.13-0.23,0.217-0.396,0.261c-0.336,0.087-0.801-0.106-0.981-0.416c-0.183-0.313,0.038-0.682,0.29-0.886
				c0.31-0.253,0.788-0.049,0.686,0.376c-0.046,0.197-0.177,0.224-0.35,0.276c-0.098,0.03-0.168-0.01-0.186,0.118
				c-0.016,0.115,0.113,0.201,0.194,0.235c0.396,0.168,0.722-0.172,0.86-0.504c0.127-0.305-0.109-0.757-0.342-0.956
				c-0.307-0.264-0.681-0.413-1.067-0.514c-0.382-0.1-0.757-0.157-1.152-0.152c-0.411,0.005-0.866,0.004-1.269,0.066
				c-0.395,0.062-0.768,0.148-1.173,0.138c-0.438-0.01-0.827-0.111-1.237-0.267c-0.278-0.104-0.627-0.227-0.794-0.489
				c-0.207-0.327,0.22-0.672,0.38-0.328"/>
		</g>
		<g>
			<path fill="#FFFFFF" d="M39.359,33.298c-0.163-0.077-0.285-0.219-0.385-0.366c-0.07-0.102-0.081-0.119-0.078-0.235
				c0.002-0.146,0.054-0.188-0.021-0.328c-0.141-0.258-0.296-0.055-0.483-0.129c-0.146-0.056-0.332-0.293-0.434-0.414
				c0.118-0.121,0.251-0.185,0.234-0.368c-0.014-0.166-0.142-0.247-0.265-0.334c-0.112-0.081-0.304-0.171-0.328-0.324
				c-0.042-0.269,0.198-0.301,0.379-0.344c-0.261-0.248-0.68,0.078-0.772,0.342c-0.037,0.106,0.024,0.509-0.124,0.485
				c-0.095-0.013-0.218-0.26-0.317-0.309c-0.253-0.121-0.836-0.11-1.09-0.003c-0.176,0.073-0.346,0.167-0.321,0.382
				c0.019,0.177,0.137,0.278,0.328,0.272c0.208-0.007,0.348-0.161,0.531-0.236c0.146-0.06,0.475-0.132,0.623-0.068
				c0.069,0.031,0.164,0.126,0.104,0.196c-0.039,0.046-0.248,0.007-0.303,0.016c-0.242,0.03-0.426,0.183-0.363,0.438
				c0.322-0.178,0.507-0.135,0.783,0.113c0.333,0.298,0.524,0.109,0.855-0.094c0.11,0.14,0.326,0.223,0.41,0.362
				c-0.132,0.104-0.176,0.255-0.098,0.408c0.105,0.21,0.241,0.192,0.43,0.199c0.121,0.004,0.062-0.015,0.157,0.058
				c0.055,0.044,0.099,0.118,0.151,0.169c0.083,0.078,0.226,0.287,0.334,0.148"/>
			<path fill="#FFFFFF" d="M41.865,35.147c-0.071,0.412-0.685,0.345-0.987,0.318c-0.206-0.019-0.415,0.008-0.612-0.009
				c-0.175-0.015-0.338-0.085-0.507-0.131c-0.306-0.083-0.596-0.281-0.791-0.521c-0.192-0.24-0.231-0.569-0.447-0.794
				c-0.116-0.122-0.283-0.209-0.436-0.077c-0.183,0.156,0.054,0.331-0.052,0.458c-0.271-0.124-0.506-0.392-0.668-0.633
				c-0.201-0.299-0.149-0.599-0.245-0.933c-0.042-0.148-0.149-0.285-0.311-0.315c-0.149-0.026-0.354,0.169-0.444,0.125
				c-0.101-0.051-0.076-0.332-0.177-0.442c-0.104-0.114-0.259-0.225-0.423-0.167c-0.404,0.14-0.381,0.58-0.225,0.873
				c0.087,0.166,0.086,0.34-0.118,0.157c-0.126-0.112-0.151-0.288-0.239-0.43c-0.207-0.332-0.973-1.41-1.489-1.104
				c-0.288,0.169,0.113,0.311,0.036,0.477c-0.093,0.202-0.372-0.197-0.441-0.266c-0.286-0.276-0.881-0.395-1.172-0.088
				c0.096,0.114,0.257,0.162,0.351,0.273c0.104,0.124,0.104,0.293,0.202,0.425c0.087,0.114,0.347,0.27,0.092,0.319
				c-0.127,0.025-0.34-0.069-0.468-0.094c-0.191-0.038-0.378-0.064-0.569-0.098c-0.176-0.029-0.306-0.108-0.474-0.164
				c-0.365-0.118-0.704-0.111-1.083-0.125c-0.192-0.006-0.453-0.217-0.629-0.159c0.01,0.146,0.132,0.28,0.233,0.384
				c0.103,0.105,0.313,0.169,0.38,0.273c-0.147,0.068-0.31,0.005-0.461,0.027c-0.163,0.025-0.279,0.102-0.41,0.187
				c-0.268,0.172-0.533,0.369-0.631,0.685c0.277-0.08,0.66-0.317,0.931-0.073c-0.141,0.157-0.339,0.243-0.481,0.405
				c-0.107,0.12-0.171,0.268-0.253,0.406c-0.203,0.342-0.36,0.659-0.426,1.054c-0.121,0.732,0.013,1.442,0.312,2.108
				c0.583,1.302,2.259,2.108,3.624,1.571c0.669-0.264,1.271-0.956,1.195-1.701c-0.039-0.372-0.02-0.789-0.211-1.105
				c-0.193-0.32-0.435-0.574-0.748-0.779c-0.608-0.399-1.547-0.18-2.054,0.3c-0.271,0.255-0.518,0.611-0.383,0.987
				c0.094,0.264,0.388,0.684,0.735,0.58c0.39-0.115,0.306-0.638,0.011-0.817c-0.159-0.099-0.35,0.093-0.374-0.141
				c-0.016-0.155,0.154-0.355,0.255-0.452c0.242-0.228,0.712-0.319,1.032-0.239c0.261,0.067,0.666,0.322,0.793,0.566
				c-0.196,0.008-0.373-0.043-0.549,0.103c-0.066,0.057-0.119,0.097-0.119,0.186c0,0.15,0.082,0.119,0.204,0.137
				c0.383,0.057,0.581,0.228,0.725,0.595c0.044,0.114,0.18,0.345,0.124,0.468c-0.123,0.264-0.295,0.004-0.397-0.068
				c-0.198-0.136-0.302-0.016-0.36-0.267c-0.039-0.167-0.086-0.282-0.212-0.415c-0.154-0.162-0.423-0.377-0.657-0.345
				c0.086,0.238,0.42,0.683,0.191,0.935c-0.177,0.192-0.344-0.059-0.534-0.007c-0.207,0.057-0.251,0.347-0.215,0.508
				c0.039,0.182,0.127,0.402-0.141,0.453c-0.146,0.028-0.34-0.11-0.466-0.17c-0.307-0.142-0.539-0.264-0.809-0.48
				c-1.153-0.927-0.961-3.283,0.562-3.755c0.192-0.062,0.357-0.13,0.311,0.128c-0.03,0.16-0.143,0.307-0.261,0.416
				c0.105,0.161,0.558,0.064,0.719,0.021c0.298-0.08,0.518-0.315,0.685-0.563c0.16-0.236,0.287-0.503,0.478-0.714
				c0.146-0.163,0.47-0.442,0.706-0.351c-0.273,0.286-0.63,0.482-0.39,0.902c0.042,0.071,0.095,0.088,0.099,0.181
				c0.004,0.105-0.115,0.186-0.126,0.282c-0.014,0.13,0.106,0.276,0.266,0.253c0.204-0.029,0.279-0.305,0.503-0.312
				c0.245-0.01,0.146,0.207,0.302,0.323c0.288,0.213,0.63-0.307,0.806-0.488c0.2-0.207,0.411-0.429,0.699-0.496
				c0.124-0.03,0.752-0.11,0.744,0.044c-0.008,0.186-0.496,0.294-0.617,0.377c-0.202,0.142-0.292,0.388-0.512,0.512
				c0.173,0.07,0.372,0.059,0.556,0.053c0.141-0.005,0.396-0.087,0.525-0.029c0.142,0.062,0.195,0.225,0.369,0.259
				c0.191,0.038,0.309-0.085,0.424-0.221c0.074-0.085,0.165-0.307,0.283-0.345s0.314,0.1,0.44,0.128
				c0.346,0.075,0.65,0.172,0.976,0.316c0.597,0.268,1.227,0.605,1.861,0.778c0.361,0.1,0.762,0.165,1.134,0.2
				c0.198,0.02,0.406,0.015,0.601-0.006c0.23-0.024,0.592-0.272,0.469-0.559c-0.009-0.021-0.032-0.038-0.047-0.054"/>
			<path fill="#FFFFFF" d="M41.611,35.626c-0.237,0.292-0.52,0.518-0.898,0.594c-0.308,0.062-0.701-0.102-0.966-0.204
				c-0.07-0.027-0.154-0.092-0.226-0.104c-0.182-0.031-0.125,0.017-0.196,0.142c-0.096,0.17-0.215,0.256-0.416,0.217
				c-0.131-0.025-0.294-0.096-0.406-0.182c-0.159-0.124-0.123-0.23-0.187-0.408c-0.055-0.154-0.104-0.301-0.274-0.35
				c-0.191-0.055-0.33-0.013-0.509-0.129c-0.157-0.102-0.293-0.271-0.504-0.165c-0.187,0.095-0.167,0.27-0.08,0.423
				c0.067,0.117,0.251,0.24,0.22,0.399c-0.051,0.264-0.304,0.042-0.42-0.044c-0.299-0.224-0.553-0.396-0.955-0.393
				c-0.163,0.001-0.388,0.045-0.397,0.229c-0.004,0.091,0.091,0.113,0.062,0.216c-0.033,0.11-0.173,0.133-0.264,0.16
				c-0.216,0.064-0.895,0.448-0.469,0.711c0.173,0.107,0.428-0.001,0.214,0.286c-0.108,0.146-0.266,0.256-0.375,0.404
				c-0.166,0.228-0.396,0.82,0.017,0.949c0.093,0.028,0.174-0.043,0.276,0.008c0.074,0.035,0.12,0.15,0.168,0.206
				c0.113,0.13,0.231,0.217,0.396,0.261c0.336,0.087,0.801-0.106,0.981-0.416c0.182-0.313-0.038-0.682-0.29-0.886
				c-0.31-0.253-0.787-0.049-0.687,0.376c0.048,0.197,0.178,0.224,0.35,0.276c0.099,0.03,0.17-0.01,0.188,0.118
				c0.015,0.115-0.114,0.201-0.196,0.235c-0.395,0.168-0.722-0.172-0.86-0.504c-0.127-0.305,0.109-0.757,0.342-0.956
				c0.306-0.264,0.681-0.413,1.066-0.514c0.382-0.1,0.758-0.157,1.153-0.152c0.412,0.005,0.866,0.004,1.269,0.066
				c0.393,0.062,0.769,0.148,1.172,0.138c0.437-0.01,0.828-0.111,1.236-0.267c0.279-0.104,0.629-0.227,0.796-0.489
				c0.206-0.327-0.22-0.672-0.38-0.328"/>
		</g>
	</g>
	<polygon fill="#FFFFFF" points="42.175,7.059 43.081,9.806 46.095,9.806 43.646,11.515 44.557,14.284 42.175,12.568 39.761,14.29 
		40.687,11.518 38.311,9.805 41.257,9.804 	"/>
	<path fill="#FFFFFF" d="M39.797,11.889l-3.779-2.723l4.686,0l1.323-3.954l0.135-0.406L43.6,9.168h4.799L44.5,11.887l1.447,4.402
		l-3.786-2.729l-3.835,2.733L39.797,11.889L39.797,11.889z M40.909,9.449l-4.009,0l3.234,2.33l-1.26,3.774l3.289-2.344l3.242,2.335
		l-1.241-3.771l3.329-2.323h-4.1l-1.231-3.744L40.909,9.449L40.909,9.449z"/>
	<g>
		<path fill="#FFFFFF" d="M56.814,33.84c0,0,2.562,0.428,3.519-0.07l1.824-2.712l3.475-0.771l1.896-2.822l-0.441-3.044l2.568-3.817
			l1.244-0.616c0,0,0.342,0.802-0.402,1.908l1.324,0.112c0,0-0.459,1.298-1.199,1.784c0,0,0.846,0.362,1.238,0.162
			c0,0-0.135,1.203-1.139,1.771c0,0,0.344,0.491,0.867,0.792c0,0-0.422,1.167-1.629,1.342l1.584,1.115l-0.074,0.106
			c0,0-0.885,1.01-2.377,0.683l1.395,0.936c0,0-1.365,0.949-2.508,0.337l0.506,1.481c0,0-1.098,0.4-2.323-0.629l0.162,1.454
			c0,0-1.145,0.008-2.061-0.866c0,0-0.134,0.584-0.136,1.049c0,0-0.335,0.188-1.262-0.436c0,0-0.143-0.097-0.145,0.215
			s-0.328,1.49-1.819,1.627c-1.493,0.138-2.47,0.205-3.878-0.016L56.814,33.84z"/>
		<path fill="#FFFFFF" d="M58.204,35.551c0,0,3.91,0.506,5.006-1.662c0,0,1.582,0.498,1.443-0.374c0,0,2.691,1.083,2.186-0.553
			c0,0,2.717,0.738,1.807-1.221c0,0,3.146,0.096,2.068-1.461c0,0,1.674-0.636,1.51-1.472c0,0-0.332-0.586-1-0.826
			c0,0,1.545-1.14,1.309-1.559c-0.238-0.419-0.904-0.815-0.904-0.815s1.652-1.221,1.236-1.761c-0.416-0.538-0.561-0.323-0.775-0.313
			c-0.215,0.012-0.428-0.132-0.428-0.132s1.221-1.2,0.711-1.752c-0.512-0.551-0.93-0.313-0.93-0.313s0.338-0.966,0.148-1.299
			c-0.189-0.336-0.189-0.336-0.189-0.336s2.771-1.039,5.621-6.432c0,0,2.576,3.029-3.459,8.611c0,0-0.143,0.213,0.191,0.181
			c0.334-0.035,2.293-0.791,4.646-4.598c0,0,1.152,3.989-4.078,8.143c0,0-0.189,0.129,0.049,0.239
			c0.236,0.109,2.303-0.42,4.535-4.049c0,0,1.09,5.24-4.777,7.412c0,0,2.217,0.713,4.098-1.546c0,0-0.445,4.52-6.676,4.996
			c0,0-0.383,0.104-0.133,0.272c0.252,0.169,2.24,0.679,3.854,0.052c1.613-0.625-2.916,3.795-6.41,1.133
			c0,0-0.334-0.276-0.227,0.105c0.105,0.381-0.184,1.122,3.738,1.84c0,0-2.012,2.068-5.833-0.345c0,0-0.43,0.021-0.251,0.142
			c0.18,0.12,0.723,1.159,3.059,2.004c0,0-2.953,1.23-5.672-1.739c0,0-0.166-0.37-0.203-0.086c-0.037,0.287-0.041,1.217,2.27,2.718
			c0,0-2.666,0.802-4.68-2.523c0,0,0.037-0.13-0.179-0.12c-0.214,0.012-0.216,0.321-0.216,0.321s-0.066,1.407,1.326,2.344
			C61.995,38.777,59.655,39.329,58.204,35.551z"/>
	</g>
	<g>
		<path fill="#FFFFFF" d="M27.148,33.84c0,0-2.562,0.428-3.52-0.07l-1.824-2.712l-3.475-0.771l-1.897-2.822l0.441-3.044
			l-2.567-3.817l-1.245-0.616c0,0-0.342,0.802,0.402,1.908l-1.326,0.112c0,0,0.459,1.298,1.202,1.784c0,0-0.846,0.362-1.24,0.162
			c0,0,0.137,1.203,1.14,1.771c0,0-0.345,0.491-0.868,0.792c0,0,0.422,1.167,1.629,1.342l-1.583,1.115l0.072,0.106
			c0,0,0.887,1.01,2.377,0.683l-1.392,0.936c0,0,1.364,0.949,2.506,0.337l-0.506,1.481c0,0,1.1,0.4,2.324-0.629l-0.161,1.454
			c0,0,1.144,0.008,2.06-0.866c0,0,0.133,0.584,0.135,1.049c0,0,0.335,0.188,1.263-0.436c0,0,0.143-0.097,0.145,0.215
			s0.327,1.49,1.819,1.627c1.492,0.138,2.47,0.205,3.876-0.016L27.148,33.84z"/>
		<path fill="#FFFFFF" d="M25.759,35.551c0,0-3.91,0.506-5.005-1.662c0,0-1.583,0.498-1.444-0.374c0,0-2.691,1.083-2.186-0.553
			c0,0-2.717,0.738-1.806-1.221c0,0-3.149,0.096-2.071-1.461c0,0-1.673-0.636-1.508-1.472c0,0,0.332-0.586,0.999-0.826
			c0,0-1.544-1.14-1.307-1.559c0.237-0.419,0.903-0.815,0.903-0.815s-1.652-1.221-1.236-1.761c0.415-0.538,0.561-0.323,0.774-0.313
			c0.216,0.012,0.429-0.132,0.429-0.132s-1.222-1.2-0.711-1.752c0.511-0.551,0.93-0.313,0.93-0.313s-0.339-0.966-0.148-1.299
			c0.188-0.336,0.188-0.336,0.188-0.336s-2.771-1.039-5.62-6.432c0,0-2.576,3.029,3.458,8.611c0,0,0.144,0.213-0.19,0.181
			c-0.334-0.035-2.294-0.791-4.646-4.598c0,0-1.153,3.989,4.077,8.143c0,0,0.191,0.129-0.047,0.239
			c-0.237,0.109-2.303-0.42-4.537-4.049c0,0-1.089,5.24,4.777,7.412c0,0-2.216,0.713-4.098-1.546c0,0,0.447,4.52,6.676,4.996
			c0,0,0.382,0.104,0.133,0.272c-0.251,0.169-2.241,0.679-3.854,0.052c-1.613-0.625,2.916,3.795,6.411,1.133
			c0,0,0.333-0.276,0.227,0.105c-0.106,0.381,0.184,1.122-3.738,1.84c0,0,2.012,2.068,5.832-0.345c0,0,0.43,0.021,0.251,0.142
			c-0.179,0.12-0.723,1.159-3.058,2.004c0,0,2.952,1.23,5.671-1.739c0,0,0.167-0.37,0.203-0.086
			c0.036,0.287,0.041,1.217-2.269,2.718c0,0,2.665,0.802,4.679-2.523c0,0-0.037-0.13,0.179-0.12
			c0.214,0.012,0.216,0.321,0.216,0.321s0.065,1.407-1.327,2.344C21.968,38.777,24.307,39.329,25.759,35.551z"/>
	</g>
	<polygon fill="#FFFFFF" points="49.583,22.046 49.583,27.522 47.428,27.522 47.428,19.662 55.818,19.662 55.818,27.52 
		53.719,27.52 53.719,22.046 52.73,22.046 52.73,27.52 50.632,27.52 50.632,22.046 	"/>
	<polygon fill="#FFFFFF" points="23.352,19.658 23.352,22.804 20.848,22.804 20.848,19.658 18.692,19.658 18.692,27.522 
		20.788,27.522 20.788,24.901 24.285,24.901 24.285,27.522 26.616,27.522 26.616,22.804 25.451,22.804 25.451,19.658 	"/>
	<path fill="#FFFFFF" d="M34.925,19.67v3.146h1.632v4.714H34.4v-2.618h-4.137v2.622h-2.156V19.67H34.925z M32.767,22.062h-2.507
		v0.874h2.507V22.062z"/>
	<path fill="#FFFFFF" d="M59.698,24.971v2.562H57.37l-0.004-7.86h7.867v7.859h-2.154v-2.561H59.698z M63.084,22.06H59.7v0.812h3.385
		V22.06z"/>
	<path fill="#FFFFFF" d="M45.946,19.658l0.002,7.862h-7.866v-7.861L45.946,19.658z M43.793,22.047h-3.38v3.379h3.38V22.047z"/>
</g>
</svg>
